<svg id="Layer_1" data-name="Layer 1" xmlns="http://www.w3.org/2000/svg" viewBox="0 0 40 40"><defs><style>.cls-1,.cls-4{fill:#0997eb;}.cls-1{opacity:0.2;isolation:isolate;}.cls-2,.cls-3{fill:none;}.cls-3{stroke:#0997eb;stroke-width:2px;}</style></defs><title>ic_ToastMessage_Info</title><g id="ic_ToastMessage_Info" data-name="ic ToastMessage Info"><circle id="Ellipse_69-3" data-name="Ellipse 69-3" class="cls-1" cx="21.89" cy="22.37" r="16.11"/><g id="Ellipse_68-3" data-name="Ellipse 68-3"><circle class="cls-2" cx="18.81" cy="18.33" r="16.81"/><circle class="cls-3" cx="18.81" cy="18.33" r="15.81"/></g><g id="Group_26879" data-name="Group 26879"><path id="Path_59381" data-name="Path 59381" class="cls-4" d="M18,25.61a1.14,1.14,0,0,1-.41-.95V16.4a1.13,1.13,0,0,1,.41-.94,1.55,1.55,0,0,1,1-.32,1.67,1.67,0,0,1,1.05.32,1.12,1.12,0,0,1,.42.94v8.26a1.15,1.15,0,0,1-.42.95A3.25,3.25,0,0,1,18,25.61Z"/><circle id="Ellipse_75" data-name="Ellipse 75" class="cls-4" cx="19.03" cy="11.73" r="1.46"/></g></g></svg>